STARTFONT 2.1
COMMENT Scacelith GIF 24 px Medium: a subset of Terminus Font 4.49.1 by Dimitar Toshkov Zhekov,
COMMENT modified (digit zero without slash), under the SIL Open Font License 1.1 (OFL.txt).
COMMENT Generated by dedicated-server/tools/gen-gif-font.js.
FONT -scacelith-Scacelith GIF-Medium-R-Normal--24-240-72-72-C-120-ISO10646-1
SIZE 24 72 72
FONTBOUNDINGBOX 12 24 0 -5
STARTPROPERTIES 20
FAMILY_NAME "Scacelith GIF"
FOUNDRY "scacelith"
SETWIDTH_NAME "Normal"
ADD_STYLE_NAME ""
COPYRIGHT "Copyright (C) 2020 Dimitar Toshkov Zhekov (Terminus Font)"
NOTICE "Licensed under the SIL Open Font License, Version 1.1"
WEIGHT_NAME "Medium"
SLANT "R"
PIXEL_SIZE 24
POINT_SIZE 240
RESOLUTION_X 72
RESOLUTION_Y 72
SPACING "C"
AVERAGE_WIDTH 120
CHARSET_REGISTRY "ISO10646"
CHARSET_ENCODING "1"
MIN_SPACE 12
FONT_ASCENT 19
FONT_DESCENT 5
DEFAULT_CHAR 63
ENDPROPERTIES
CHARS 100
STARTCHAR U+0020
ENCODING 32
SWIDTH 500 0
DWIDTH 12 0
BBX 12 24 0 -5
BITMAP
0000
0000
0000
0000
0000
0000
0000
0000
0000
0000
0000
0000
0000
0000
0000
0000
0000
0000
0000
0000
0000
0000
0000
0000
ENDCHAR
STARTCHAR U+0021
ENCODING 33
SWIDTH 500 0
DWIDTH 12 0
BBX 12 24 0 -5
BITMAP
0000
0000
0000
0000
0400
0400
0400
0400
0400
0400
0400
0400
0400
0400
0000
0000
0400
0400
0400
0000
0000
0000
0000
0000
ENDCHAR
STARTCHAR U+0022
ENCODING 34
SWIDTH 500 0
DWIDTH 12 0
BBX 12 24 0 -5
BITMAP
0000
0000
1100
1100
1100
1100
1100
0000
0000
0000
0000
0000
0000
0000
0000
0000
0000
0000
0000
0000
0000
0000
0000
0000
ENDCHAR
STARTCHAR U+0023
ENCODING 35
SWIDTH 500 0
DWIDTH 12 0
BBX 12 24 0 -5
BITMAP
0000
0000
0000
0000
1100
1100
1100
1100
7FC0
1100
1100
1100
1100
1100
7FC0
1100
1100
1100
1100
0000
0000
0000
0000
0000
ENDCHAR
STARTCHAR U+0024
ENCODING 36
SWIDTH 500 0
DWIDTH 12 0
BBX 12 24 0 -5
BITMAP
0000
0000
0000
0400
0400
1F00
2480
4440
4400
4400
2400
1F00
0480
0440
0440
4440
2480
1F00
0400
0400
0000
0000
0000
0000
ENDCHAR
STARTCHAR U+0025
ENCODING 37
SWIDTH 500 0
DWIDTH 12 0
BBX 12 24 0 -5
BITMAP
0000
0000
0000
0000
0000
3080
4880
4900
3100
0200
0200
0400
0400
0800
0800
1180
1240
2240
2180
0000
0000
0000
0000
0000
ENDCHAR
STARTCHAR U+0026
ENCODING 38
SWIDTH 500 0
DWIDTH 12 0
BBX 12 24 0 -5
BITMAP
0000
0000
0000
0000
1E00
2100
2100
2100
2100
1200
0C00
1400
2240
4140
4080
4080
4080
2140
1E40
0000
0000
0000
0000
0000
ENDCHAR
STARTCHAR U+0027
ENCODING 39
SWIDTH 500 0
DWIDTH 12 0
BBX 12 24 0 -5
BITMAP
0000
0000
0400
0400
0400
0400
0400
0000
0000
0000
0000
0000
0000
0000
0000
0000
0000
0000
0000
0000
0000
0000
0000
0000
ENDCHAR
STARTCHAR U+0028
ENCODING 40
SWIDTH 500 0
DWIDTH 12 0
BBX 12 24 0 -5
BITMAP
0000
0000
0000
0000
0100
0200
0400
0400
0800
0800
0800
0800
0800
0800
0800
0400
0400
0200
0100
0000
0000
0000
0000
0000
ENDCHAR
STARTCHAR U+0029
ENCODING 41
SWIDTH 500 0
DWIDTH 12 0
BBX 12 24 0 -5
BITMAP
0000
0000
0000
0000
0800
0400
0200
0200
0100
0100
0100
0100
0100
0100
0100
0200
0200
0400
0800
0000
0000
0000
0000
0000
ENDCHAR
STARTCHAR U+002A
ENCODING 42
SWIDTH 500 0
DWIDTH 12 0
BBX 12 24 0 -5
BITMAP
0000
0000
0000
0000
0000
0000
0000
2080
1100
0A00
0400
7FC0
0400
0A00
1100
2080
0000
0000
0000
0000
0000
0000
0000
0000
ENDCHAR
STARTCHAR U+002B
ENCODING 43
SWIDTH 500 0
DWIDTH 12 0
BBX 12 24 0 -5
BITMAP
0000
0000
0000
0000
0000
0000
0000
0400
0400
0400
0400
7FC0
0400
0400
0400
0400
0000
0000
0000
0000
0000
0000
0000
0000
ENDCHAR
STARTCHAR U+002C
ENCODING 44
SWIDTH 500 0
DWIDTH 12 0
BBX 12 24 0 -5
BITMAP
0000
0000
0000
0000
0000
0000
0000
0000
0000
0000
0000
0000
0000
0000
0000
0400
0400
0400
0400
0800
0000
0000
0000
0000
ENDCHAR
STARTCHAR U+002D
ENCODING 45
SWIDTH 500 0
DWIDTH 12 0
BBX 12 24 0 -5
BITMAP
0000
0000
0000
0000
0000
0000
0000
0000
0000
0000
0000
7FC0
0000
0000
0000
0000
0000
0000
0000
0000
0000
0000
0000
0000
ENDCHAR
STARTCHAR U+002E
ENCODING 46
SWIDTH 500 0
DWIDTH 12 0
BBX 12 24 0 -5
BITMAP
0000
0000
0000
0000
0000
0000
0000
0000
0000
0000
0000
0000
0000
0000
0000
0000
0400
0400
0400
0000
0000
0000
0000
0000
ENDCHAR
STARTCHAR U+002F
ENCODING 47
SWIDTH 500 0
DWIDTH 12 0
BBX 12 24 0 -5
BITMAP
0000
0000
0000
0000
0000
0080
0080
0100
0100
0200
0200
0400
0400
0800
0800
1000
1000
2000
2000
0000
0000
0000
0000
0000
ENDCHAR
STARTCHAR U+0030
ENCODING 48
SWIDTH 500 0
DWIDTH 12 0
BBX 12 24 0 -5
BITMAP
0000
0000
0000
0000
1F00
2080
4040
4040
4040
4040
4040
4040
4040
4040
4040
4040
4040
2080
1F00
0000
0000
0000
0000
0000
ENDCHAR
STARTCHAR U+0031
ENCODING 49
SWIDTH 500 0
DWIDTH 12 0
BBX 12 24 0 -5
BITMAP
0000
0000
0000
0000
0400
0C00
1400
2400
0400
0400
0400
0400
0400
0400
0400
0400
0400
0400
3F80
0000
0000
0000
0000
0000
ENDCHAR
STARTCHAR U+0032
ENCODING 50
SWIDTH 500 0
DWIDTH 12 0
BBX 12 24 0 -5
BITMAP
0000
0000
0000
0000
1F00
2080
4040
4040
4040
0040
0080
0100
0200
0400
0800
1000
2000
4000
7FC0
0000
0000
0000
0000
0000
ENDCHAR
STARTCHAR U+0033
ENCODING 51
SWIDTH 500 0
DWIDTH 12 0
BBX 12 24 0 -5
BITMAP
0000
0000
0000
0000
1F00
2080
4040
0040
0040
0040
0080
0F00
0080
0040
0040
0040
4040
2080
1F00
0000
0000
0000
0000
0000
ENDCHAR
STARTCHAR U+0034
ENCODING 52
SWIDTH 500 0
DWIDTH 12 0
BBX 12 24 0 -5
BITMAP
0000
0000
0000
0000
0040
00C0
0140
0240
0440
0840
1040
2040
4040
4040
4040
7FC0
0040
0040
0040
0000
0000
0000
0000
0000
ENDCHAR
STARTCHAR U+0035
ENCODING 53
SWIDTH 500 0
DWIDTH 12 0
BBX 12 24 0 -5
BITMAP
0000
0000
0000
0000
7FC0
4000
4000
4000
4000
4000
7F00
0080
0040
0040
0040
0040
4040
2080
1F00
0000
0000
0000
0000
0000
ENDCHAR
STARTCHAR U+0036
ENCODING 54
SWIDTH 500 0
DWIDTH 12 0
BBX 12 24 0 -5
BITMAP
0000
0000
0000
0000
1F80
2000
4000
4000
4000
4000
7F00
4080
4040
4040
4040
4040
4040
2080
1F00
0000
0000
0000
0000
0000
ENDCHAR
STARTCHAR U+0037
ENCODING 55
SWIDTH 500 0
DWIDTH 12 0
BBX 12 24 0 -5
BITMAP
0000
0000
0000
0000
7FC0
4040
4040
0040
0080
0080
0100
0100
0200
0200
0400
0400
0400
0400
0400
0000
0000
0000
0000
0000
ENDCHAR
STARTCHAR U+0038
ENCODING 56
SWIDTH 500 0
DWIDTH 12 0
BBX 12 24 0 -5
BITMAP
0000
0000
0000
0000
1F00
2080
4040
4040
4040
4040
2080
1F00
2080
4040
4040
4040
4040
2080
1F00
0000
0000
0000
0000
0000
ENDCHAR
STARTCHAR U+0039
ENCODING 57
SWIDTH 500 0
DWIDTH 12 0
BBX 12 24 0 -5
BITMAP
0000
0000
0000
0000
1F00
2080
4040
4040
4040
4040
4040
2040
1FC0
0040
0040
0040
0040
0080
3F00
0000
0000
0000
0000
0000
ENDCHAR
STARTCHAR U+003A
ENCODING 58
SWIDTH 500 0
DWIDTH 12 0
BBX 12 24 0 -5
BITMAP
0000
0000
0000
0000
0000
0000
0000
0000
0400
0400
0400
0000
0000
0000
0000
0400
0400
0400
0000
0000
0000
0000
0000
0000
ENDCHAR
STARTCHAR U+003B
ENCODING 59
SWIDTH 500 0
DWIDTH 12 0
BBX 12 24 0 -5
BITMAP
0000
0000
0000
0000
0000
0000
0000
0000
0400
0400
0400
0000
0000
0000
0000
0400
0400
0400
0400
0800
0000
0000
0000
0000
ENDCHAR
STARTCHAR U+003C
ENCODING 60
SWIDTH 500 0
DWIDTH 12 0
BBX 12 24 0 -5
BITMAP
0000
0000
0000
0000
0040
0080
0100
0200
0400
0800
1000
2000
1000
0800
0400
0200
0100
0080
0040
0000
0000
0000
0000
0000
ENDCHAR
STARTCHAR U+003D
ENCODING 61
SWIDTH 500 0
DWIDTH 12 0
BBX 12 24 0 -5
BITMAP
0000
0000
0000
0000
0000
0000
0000
0000
0000
7FC0
0000
0000
0000
0000
7FC0
0000
0000
0000
0000
0000
0000
0000
0000
0000
ENDCHAR
STARTCHAR U+003E
ENCODING 62
SWIDTH 500 0
DWIDTH 12 0
BBX 12 24 0 -5
BITMAP
0000
0000
0000
0000
2000
1000
0800
0400
0200
0100
0080
0040
0080
0100
0200
0400
0800
1000
2000
0000
0000
0000
0000
0000
ENDCHAR
STARTCHAR U+003F
ENCODING 63
SWIDTH 500 0
DWIDTH 12 0
BBX 12 24 0 -5
BITMAP
0000
0000
0000
0000
1F00
2080
4040
4040
4040
0080
0100
0200
0400
0400
0000
0000
0400
0400
0400
0000
0000
0000
0000
0000
ENDCHAR
STARTCHAR U+0040
ENCODING 64
SWIDTH 500 0
DWIDTH 12 0
BBX 12 24 0 -5
BITMAP
0000
0000
0000
0000
1F80
2040
4020
43E0
4420
4820
4820
4820
4820
4820
4460
43A0
4000
2000
1FE0
0000
0000
0000
0000
0000
ENDCHAR
STARTCHAR U+0041
ENCODING 65
SWIDTH 500 0
DWIDTH 12 0
BBX 12 24 0 -5
BITMAP
0000
0000
0000
0000
1F00
2080
4040
4040
4040
4040
4040
4040
7FC0
4040
4040
4040
4040
4040
4040
0000
0000
0000
0000
0000
ENDCHAR
STARTCHAR U+0042
ENCODING 66
SWIDTH 500 0
DWIDTH 12 0
BBX 12 24 0 -5
BITMAP
0000
0000
0000
0000
7F00
4080
4040
4040
4040
4080
7F00
4080
4040
4040
4040
4040
4040
4080
7F00
0000
0000
0000
0000
0000
ENDCHAR
STARTCHAR U+0043
ENCODING 67
SWIDTH 500 0
DWIDTH 12 0
BBX 12 24 0 -5
BITMAP
0000
0000
0000
0000
1F00
2080
4040
4040
4000
4000
4000
4000
4000
4000
4000
4040
4040
2080
1F00
0000
0000
0000
0000
0000
ENDCHAR
STARTCHAR U+0044
ENCODING 68
SWIDTH 500 0
DWIDTH 12 0
BBX 12 24 0 -5
BITMAP
0000
0000
0000
0000
7F00
4080
4040
4040
4040
4040
4040
4040
4040
4040
4040
4040
4040
4080
7F00
0000
0000
0000
0000
0000
ENDCHAR
STARTCHAR U+0045
ENCODING 69
SWIDTH 500 0
DWIDTH 12 0
BBX 12 24 0 -5
BITMAP
0000
0000
0000
0000
7FC0
4000
4000
4000
4000
4000
4000
7F00
4000
4000
4000
4000
4000
4000
7FC0
0000
0000
0000
0000
0000
ENDCHAR
STARTCHAR U+0046
ENCODING 70
SWIDTH 500 0
DWIDTH 12 0
BBX 12 24 0 -5
BITMAP
0000
0000
0000
0000
7FC0
4000
4000
4000
4000
4000
4000
7F00
4000
4000
4000
4000
4000
4000
4000
0000
0000
0000
0000
0000
ENDCHAR
STARTCHAR U+0047
ENCODING 71
SWIDTH 500 0
DWIDTH 12 0
BBX 12 24 0 -5
BITMAP
0000
0000
0000
0000
1F00
2080
4040
4040
4000
4000
4000
47C0
4040
4040
4040
4040
4040
2080
1F00
0000
0000
0000
0000
0000
ENDCHAR
STARTCHAR U+0048
ENCODING 72
SWIDTH 500 0
DWIDTH 12 0
BBX 12 24 0 -5
BITMAP
0000
0000
0000
0000
4040
4040
4040
4040
4040
4040
4040
7FC0
4040
4040
4040
4040
4040
4040
4040
0000
0000
0000
0000
0000
ENDCHAR
STARTCHAR U+0049
ENCODING 73
SWIDTH 500 0
DWIDTH 12 0
BBX 12 24 0 -5
BITMAP
0000
0000
0000
0000
1F00
0400
0400
0400
0400
0400
0400
0400
0400
0400
0400
0400
0400
0400
1F00
0000
0000
0000
0000
0000
ENDCHAR
STARTCHAR U+004A
ENCODING 74
SWIDTH 500 0
DWIDTH 12 0
BBX 12 24 0 -5
BITMAP
0000
0000
0000
0000
03E0
0080
0080
0080
0080
0080
0080
0080
0080
0080
4080
4080
4080
2100
1E00
0000
0000
0000
0000
0000
ENDCHAR
STARTCHAR U+004B
ENCODING 75
SWIDTH 500 0
DWIDTH 12 0
BBX 12 24 0 -5
BITMAP
0000
0000
0000
0000
4040
4080
4100
4200
4400
4800
5000
6000
5000
4800
4400
4200
4100
4080
4040
0000
0000
0000
0000
0000
ENDCHAR
STARTCHAR U+004C
ENCODING 76
SWIDTH 500 0
DWIDTH 12 0
BBX 12 24 0 -5
BITMAP
0000
0000
0000
0000
4000
4000
4000
4000
4000
4000
4000
4000
4000
4000
4000
4000
4000
4000
7FC0
0000
0000
0000
0000
0000
ENDCHAR
STARTCHAR U+004D
ENCODING 77
SWIDTH 500 0
DWIDTH 12 0
BBX 12 24 0 -5
BITMAP
0000
0000
0000
0000
4020
6060
50A0
50A0
4920
4620
4620
4020
4020
4020
4020
4020
4020
4020
4020
0000
0000
0000
0000
0000
ENDCHAR
STARTCHAR U+004E
ENCODING 78
SWIDTH 500 0
DWIDTH 12 0
BBX 12 24 0 -5
BITMAP
0000
0000
0000
0000
4040
4040
4040
4040
6040
5040
4840
4440
4240
4140
40C0
4040
4040
4040
4040
0000
0000
0000
0000
0000
ENDCHAR
STARTCHAR U+004F
ENCODING 79
SWIDTH 500 0
DWIDTH 12 0
BBX 12 24 0 -5
BITMAP
0000
0000
0000
0000
1F00
2080
4040
4040
4040
4040
4040
4040
4040
4040
4040
4040
4040
2080
1F00
0000
0000
0000
0000
0000
ENDCHAR
STARTCHAR U+0050
ENCODING 80
SWIDTH 500 0
DWIDTH 12 0
BBX 12 24 0 -5
BITMAP
0000
0000
0000
0000
7F00
4080
4040
4040
4040
4040
4080
7F00
4000
4000
4000
4000
4000
4000
4000
0000
0000
0000
0000
0000
ENDCHAR
STARTCHAR U+0051
ENCODING 81
SWIDTH 500 0
DWIDTH 12 0
BBX 12 24 0 -5
BITMAP
0000
0000
0000
0000
1F00
2080
4040
4040
4040
4040
4040
4040
4040
4040
4040
4040
4440
2280
1F00
0080
0040
0000
0000
0000
ENDCHAR
STARTCHAR U+0052
ENCODING 82
SWIDTH 500 0
DWIDTH 12 0
BBX 12 24 0 -5
BITMAP
0000
0000
0000
0000
7F00
4080
4040
4040
4040
4040
4080
7F00
5000
4800
4400
4200
4100
4080
4040
0000
0000
0000
0000
0000
ENDCHAR
STARTCHAR U+0053
ENCODING 83
SWIDTH 500 0
DWIDTH 12 0
BBX 12 24 0 -5
BITMAP
0000
0000
0000
0000
1F00
2080
4040
4000
4000
4000
2000
1F00
0080
0040
0040
0040
4040
2080
1F00
0000
0000
0000
0000
0000
ENDCHAR
STARTCHAR U+0054
ENCODING 84
SWIDTH 500 0
DWIDTH 12 0
BBX 12 24 0 -5
BITMAP
0000
0000
0000
0000
7FC0
0400
0400
0400
0400
0400
0400
0400
0400
0400
0400
0400
0400
0400
0400
0000
0000
0000
0000
0000
ENDCHAR
STARTCHAR U+0055
ENCODING 85
SWIDTH 500 0
DWIDTH 12 0
BBX 12 24 0 -5
BITMAP
0000
0000
0000
0000
4040
4040
4040
4040
4040
4040
4040
4040
4040
4040
4040
4040
4040
2080
1F00
0000
0000
0000
0000
0000
ENDCHAR
STARTCHAR U+0056
ENCODING 86
SWIDTH 500 0
DWIDTH 12 0
BBX 12 24 0 -5
BITMAP
0000
0000
0000
0000
4040
4040
4040
4040
2080
2080
2080
1100
1100
1100
0A00
0A00
0A00
0400
0400
0000
0000
0000
0000
0000
ENDCHAR
STARTCHAR U+0057
ENCODING 87
SWIDTH 500 0
DWIDTH 12 0
BBX 12 24 0 -5
BITMAP
0000
0000
0000
0000
4020
4020
4020
4020
4020
4020
4020
4020
4620
4620
4920
50A0
50A0
6060
4020
0000
0000
0000
0000
0000
ENDCHAR
STARTCHAR U+0058
ENCODING 88
SWIDTH 500 0
DWIDTH 12 0
BBX 12 24 0 -5
BITMAP
0000
0000
0000
0000
4040
4040
2080
2080
1100
1100
0A00
0400
0A00
1100
1100
2080
2080
4040
4040
0000
0000
0000
0000
0000
ENDCHAR
STARTCHAR U+0059
ENCODING 89
SWIDTH 500 0
DWIDTH 12 0
BBX 12 24 0 -5
BITMAP
0000
0000
0000
0000
4040
4040
2080
2080
1100
1100
0A00
0A00
0400
0400
0400
0400
0400
0400
0400
0000
0000
0000
0000
0000
ENDCHAR
STARTCHAR U+005A
ENCODING 90
SWIDTH 500 0
DWIDTH 12 0
BBX 12 24 0 -5
BITMAP
0000
0000
0000
0000
7FC0
0040
0040
0040
0080
0100
0200
0400
0800
1000
2000
4000
4000
4000
7FC0
0000
0000
0000
0000
0000
ENDCHAR
STARTCHAR U+005B
ENCODING 91
SWIDTH 500 0
DWIDTH 12 0
BBX 12 24 0 -5
BITMAP
0000
0000
0000
0000
0F00
0800
0800
0800
0800
0800
0800
0800
0800
0800
0800
0800
0800
0800
0F00
0000
0000
0000
0000
0000
ENDCHAR
STARTCHAR U+005C
ENCODING 92
SWIDTH 500 0
DWIDTH 12 0
BBX 12 24 0 -5
BITMAP
0000
0000
0000
0000
0000
2000
2000
1000
1000
0800
0800
0400
0400
0200
0200
0100
0100
0080
0080
0000
0000
0000
0000
0000
ENDCHAR
STARTCHAR U+005D
ENCODING 93
SWIDTH 500 0
DWIDTH 12 0
BBX 12 24 0 -5
BITMAP
0000
0000
0000
0000
0F00
0100
0100
0100
0100
0100
0100
0100
0100
0100
0100
0100
0100
0100
0F00
0000
0000
0000
0000
0000
ENDCHAR
STARTCHAR U+005E
ENCODING 94
SWIDTH 500 0
DWIDTH 12 0
BBX 12 24 0 -5
BITMAP
0000
0000
0400
0A00
1100
2080
4040
0000
0000
0000
0000
0000
0000
0000
0000
0000
0000
0000
0000
0000
0000
0000
0000
0000
ENDCHAR
STARTCHAR U+005F
ENCODING 95
SWIDTH 500 0
DWIDTH 12 0
BBX 12 24 0 -5
BITMAP
0000
0000
0000
0000
0000
0000
0000
0000
0000
0000
0000
0000
0000
0000
0000
0000
0000
0000
0000
0000
7FC0
0000
0000
0000
ENDCHAR
STARTCHAR U+0060
ENCODING 96
SWIDTH 500 0
DWIDTH 12 0
BBX 12 24 0 -5
BITMAP
0000
1000
0800
0400
0000
0000
0000
0000
0000
0000
0000
0000
0000
0000
0000
0000
0000
0000
0000
0000
0000
0000
0000
0000
ENDCHAR
STARTCHAR U+0061
ENCODING 97
SWIDTH 500 0
DWIDTH 12 0
BBX 12 24 0 -5
BITMAP
0000
0000
0000
0000
0000
0000
0000
0000
3F00
0080
0040
0040
1FC0
2040
4040
4040
4040
2040
1FC0
0000
0000
0000
0000
0000
ENDCHAR
STARTCHAR U+0062
ENCODING 98
SWIDTH 500 0
DWIDTH 12 0
BBX 12 24 0 -5
BITMAP
0000
0000
0000
0000
4000
4000
4000
4000
7F00
4080
4040
4040
4040
4040
4040
4040
4040
4080
7F00
0000
0000
0000
0000
0000
ENDCHAR
STARTCHAR U+0063
ENCODING 99
SWIDTH 500 0
DWIDTH 12 0
BBX 12 24 0 -5
BITMAP
0000
0000
0000
0000
0000
0000
0000
0000
1F00
2080
4040
4000
4000
4000
4000
4000
4040
2080
1F00
0000
0000
0000
0000
0000
ENDCHAR
STARTCHAR U+0064
ENCODING 100
SWIDTH 500 0
DWIDTH 12 0
BBX 12 24 0 -5
BITMAP
0000
0000
0000
0000
0040
0040
0040
0040
1FC0
2040
4040
4040
4040
4040
4040
4040
4040
2040
1FC0
0000
0000
0000
0000
0000
ENDCHAR
STARTCHAR U+0065
ENCODING 101
SWIDTH 500 0
DWIDTH 12 0
BBX 12 24 0 -5
BITMAP
0000
0000
0000
0000
0000
0000
0000
0000
1F00
2080
4040
4040
4040
7FC0
4000
4000
4000
2040
1F80
0000
0000
0000
0000
0000
ENDCHAR
STARTCHAR U+0066
ENCODING 102
SWIDTH 500 0
DWIDTH 12 0
BBX 12 24 0 -5
BITMAP
0000
0000
0000
0000
03C0
0400
0400
0400
3F80
0400
0400
0400
0400
0400
0400
0400
0400
0400
0400
0000
0000
0000
0000
0000
ENDCHAR
STARTCHAR U+0067
ENCODING 103
SWIDTH 500 0
DWIDTH 12 0
BBX 12 24 0 -5
BITMAP
0000
0000
0000
0000
0000
0000
0000
0000
1FC0
2040
4040
4040
4040
4040
4040
4040
4040
20C0
1F40
0040
0040
0080
3F00
0000
ENDCHAR
STARTCHAR U+0068
ENCODING 104
SWIDTH 500 0
DWIDTH 12 0
BBX 12 24 0 -5
BITMAP
0000
0000
0000
0000
4000
4000
4000
4000
7F00
4080
4040
4040
4040
4040
4040
4040
4040
4040
4040
0000
0000
0000
0000
0000
ENDCHAR
STARTCHAR U+0069
ENCODING 105
SWIDTH 500 0
DWIDTH 12 0
BBX 12 24 0 -5
BITMAP
0000
0000
0000
0000
0400
0400
0400
0000
1C00
0400
0400
0400
0400
0400
0400
0400
0400
0400
1F00
0000
0000
0000
0000
0000
ENDCHAR
STARTCHAR U+006A
ENCODING 106
SWIDTH 500 0
DWIDTH 12 0
BBX 12 24 0 -5
BITMAP
0000
0000
0000
0000
0080
0080
0080
0000
0380
0080
0080
0080
0080
0080
0080
0080
0080
0080
0080
2080
2080
1100
0E00
0000
ENDCHAR
STARTCHAR U+006B
ENCODING 107
SWIDTH 500 0
DWIDTH 12 0
BBX 12 24 0 -5
BITMAP
0000
0000
0000
0000
2000
2000
2000
2000
2040
2080
2100
2200
2400
3800
2400
2200
2100
2080
2040
0000
0000
0000
0000
0000
ENDCHAR
STARTCHAR U+006C
ENCODING 108
SWIDTH 500 0
DWIDTH 12 0
BBX 12 24 0 -5
BITMAP
0000
0000
0000
0000
1C00
0400
0400
0400
0400
0400
0400
0400
0400
0400
0400
0400
0400
0400
1F00
0000
0000
0000
0000
0000
ENDCHAR
STARTCHAR U+006D
ENCODING 109
SWIDTH 500 0
DWIDTH 12 0
BBX 12 24 0 -5
BITMAP
0000
0000
0000
0000
0000
0000
0000
0000
7F00
4480
4440
4440
4440
4440
4440
4440
4440
4440
4440
0000
0000
0000
0000
0000
ENDCHAR
STARTCHAR U+006E
ENCODING 110
SWIDTH 500 0
DWIDTH 12 0
BBX 12 24 0 -5
BITMAP
0000
0000
0000
0000
0000
0000
0000
0000
7F00
4080
4040
4040
4040
4040
4040
4040
4040
4040
4040
0000
0000
0000
0000
0000
ENDCHAR
STARTCHAR U+006F
ENCODING 111
SWIDTH 500 0
DWIDTH 12 0
BBX 12 24 0 -5
BITMAP
0000
0000
0000
0000
0000
0000
0000
0000
1F00
2080
4040
4040
4040
4040
4040
4040
4040
2080
1F00
0000
0000
0000
0000
0000
ENDCHAR
STARTCHAR U+0070
ENCODING 112
SWIDTH 500 0
DWIDTH 12 0
BBX 12 24 0 -5
BITMAP
0000
0000
0000
0000
0000
0000
0000
0000
7F00
4080
4040
4040
4040
4040
4040
4040
4040
4080
7F00
4000
4000
4000
4000
0000
ENDCHAR
STARTCHAR U+0071
ENCODING 113
SWIDTH 500 0
DWIDTH 12 0
BBX 12 24 0 -5
BITMAP
0000
0000
0000
0000
0000
0000
0000
0000
1FC0
2040
4040
4040
4040
4040
4040
4040
4040
2040
1FC0
0040
0040
0040
0040
0000
ENDCHAR
STARTCHAR U+0072
ENCODING 114
SWIDTH 500 0
DWIDTH 12 0
BBX 12 24 0 -5
BITMAP
0000
0000
0000
0000
0000
0000
0000
0000
47C0
4800
5000
6000
4000
4000
4000
4000
4000
4000
4000
0000
0000
0000
0000
0000
ENDCHAR
STARTCHAR U+0073
ENCODING 115
SWIDTH 500 0
DWIDTH 12 0
BBX 12 24 0 -5
BITMAP
0000
0000
0000
0000
0000
0000
0000
0000
3F80
4040
4000
4000
4000
3F80
0040
0040
0040
4040
3F80
0000
0000
0000
0000
0000
ENDCHAR
STARTCHAR U+0074
ENCODING 116
SWIDTH 500 0
DWIDTH 12 0
BBX 12 24 0 -5
BITMAP
0000
0000
0000
0000
0400
0400
0400
0400
3F80
0400
0400
0400
0400
0400
0400
0400
0400
0400
03C0
0000
0000
0000
0000
0000
ENDCHAR
STARTCHAR U+0075
ENCODING 117
SWIDTH 500 0
DWIDTH 12 0
BBX 12 24 0 -5
BITMAP
0000
0000
0000
0000
0000
0000
0000
0000
4040
4040
4040
4040
4040
4040
4040
4040
4040
2040
1FC0
0000
0000
0000
0000
0000
ENDCHAR
STARTCHAR U+0076
ENCODING 118
SWIDTH 500 0
DWIDTH 12 0
BBX 12 24 0 -5
BITMAP
0000
0000
0000
0000
0000
0000
0000
0000
4040
4040
4040
2080
2080
1100
1100
0A00
0A00
0400
0400
0000
0000
0000
0000
0000
ENDCHAR
STARTCHAR U+0077
ENCODING 119
SWIDTH 500 0
DWIDTH 12 0
BBX 12 24 0 -5
BITMAP
0000
0000
0000
0000
0000
0000
0000
0000
4040
4040
4040
4040
4440
4440
4440
4440
4440
4440
3F80
0000
0000
0000
0000
0000
ENDCHAR
STARTCHAR U+0078
ENCODING 120
SWIDTH 500 0
DWIDTH 12 0
BBX 12 24 0 -5
BITMAP
0000
0000
0000
0000
0000
0000
0000
0000
4040
4040
2080
1100
0A00
0400
0A00
1100
2080
4040
4040
0000
0000
0000
0000
0000
ENDCHAR
STARTCHAR U+0079
ENCODING 121
SWIDTH 500 0
DWIDTH 12 0
BBX 12 24 0 -5
BITMAP
0000
0000
0000
0000
0000
0000
0000
0000
4040
4040
4040
4040
4040
4040
4040
4040
4040
20C0
1F40
0040
0040
0080
3F00
0000
ENDCHAR
STARTCHAR U+007A
ENCODING 122
SWIDTH 500 0
DWIDTH 12 0
BBX 12 24 0 -5
BITMAP
0000
0000
0000
0000
0000
0000
0000
0000
7FC0
0040
0080
0100
0200
0400
0800
1000
2000
4000
7FC0
0000
0000
0000
0000
0000
ENDCHAR
STARTCHAR U+007B
ENCODING 123
SWIDTH 500 0
DWIDTH 12 0
BBX 12 24 0 -5
BITMAP
0000
0000
0000
0000
0180
0200
0400
0400
0400
0400
0400
1800
0400
0400
0400
0400
0400
0200
0180
0000
0000
0000
0000
0000
ENDCHAR
STARTCHAR U+007C
ENCODING 124
SWIDTH 500 0
DWIDTH 12 0
BBX 12 24 0 -5
BITMAP
0000
0000
0000
0000
0400
0400
0400
0400
0400
0400
0400
0400
0400
0400
0400
0400
0400
0400
0400
0000
0000
0000
0000
0000
ENDCHAR
STARTCHAR U+007D
ENCODING 125
SWIDTH 500 0
DWIDTH 12 0
BBX 12 24 0 -5
BITMAP
0000
0000
0000
0000
1800
0400
0200
0200
0200
0200
0200
0180
0200
0200
0200
0200
0200
0400
1800
0000
0000
0000
0000
0000
ENDCHAR
STARTCHAR U+007E
ENCODING 126
SWIDTH 500 0
DWIDTH 12 0
BBX 12 24 0 -5
BITMAP
0000
0000
3840
4440
4440
4380
0000
0000
0000
0000
0000
0000
0000
0000
0000
0000
0000
0000
0000
0000
0000
0000
0000
0000
ENDCHAR
STARTCHAR U+00B7
ENCODING 183
SWIDTH 500 0
DWIDTH 12 0
BBX 12 24 0 -5
BITMAP
0000
0000
0000
0000
0000
0000
0000
0000
0000
0000
0400
0400
0400
0000
0000
0000
0000
0000
0000
0000
0000
0000
0000
0000
ENDCHAR
STARTCHAR U+00BD
ENCODING 189
SWIDTH 500 0
DWIDTH 12 0
BBX 12 24 0 -5
BITMAP
0000
0000
0000
0800
1800
2800
0800
0840
0880
0900
0200
0400
0800
1380
2440
4440
0080
0100
0200
07C0
0000
0000
0000
0000
ENDCHAR
STARTCHAR U+2013
ENCODING 8211
SWIDTH 500 0
DWIDTH 12 0
BBX 12 24 0 -5
BITMAP
0000
0000
0000
0000
0000
0000
0000
0000
0000
0000
0000
7FC0
0000
0000
0000
0000
0000
0000
0000
0000
0000
0000
0000
0000
ENDCHAR
STARTCHAR U+2022
ENCODING 8226
SWIDTH 500 0
DWIDTH 12 0
BBX 12 24 0 -5
BITMAP
0000
0000
0000
0000
0000
0000
0000
0000
0000
0F00
1F80
1F80
1F80
1F80
0F00
0000
0000
0000
0000
0000
0000
0000
0000
0000
ENDCHAR
STARTCHAR U+2026
ENCODING 8230
SWIDTH 500 0
DWIDTH 12 0
BBX 12 24 0 -5
BITMAP
0000
0000
0000
0000
0000
0000
0000
0000
0000
0000
0000
0000
0000
0000
0000
0000
4440
4440
4440
0000
0000
0000
0000
0000
ENDCHAR
ENDFONT
